<svg xmlns="http://www.w3.org/2000/svg" width="20" height="20" viewBox="0 0 20 20" fill="none" style="width: 20px; height: 20px;">
  <path fill-rule="evenodd" clip-rule="evenodd" d="M8.16298 0.857062C9.03622 0.493562 9.99766 0.397307 10.9256 0.580481C11.8536 0.763655 12.7063 1.21802 13.376 1.88607C14.0456 2.55412 14.5019 3.40581 14.6873 4.33335C14.8726 5.26088 14.7786 6.22255 14.4172 7.09663C14.0557 7.97071 13.4431 8.71791 12.6567 9.24364C12.4587 9.37604 12.2519 9.4929 12.0382 9.59364C12.7702 9.70715 13.4848 9.92298 14.1604 10.2364L14.1629 10.2376C15.2359 10.7426 16.1928 11.4643 16.9732 12.3572C17.789 13.2542 18.4256 14.2992 18.8486 15.4356C19.2746 16.5752 19.4951 17.7814 19.5 18.998L19.5019 19.498L18.5019 19.502L18.5 19.002C18.4956 17.9033 18.2964 16.8142 17.9116 15.7851C17.5327 14.7669 16.9617 13.83 16.2302 13.0266L16.2232 13.0189C15.5334 12.2286 14.6874 11.5898 13.7383 11.143C12.8239 10.719 11.8281 10.4996 10.8202 10.5H9.18221C8.15839 10.5094 7.148 10.7341 6.21667 11.1595C5.28466 11.5852 4.45271 12.2023 3.77493 12.9707L3.77256 12.9734C2.29186 14.6281 1.4815 16.7755 1.49994 18.9958L1.50409 19.4958L0.504129 19.5041L0.499976 19.0041C0.479472 16.5355 1.38023 14.1478 3.02619 12.3079C3.7966 11.4348 4.74208 10.7337 5.8012 10.2499C6.4934 9.93376 7.224 9.7151 7.97217 9.59857C7.47614 9.3662 7.01911 9.04817 6.62393 8.65391C5.72783 7.7599 5.22292 6.54696 5.21996 5.28116C5.21775 4.33529 5.49621 3.41003 6.0201 2.6225C6.54399 1.83496 7.28975 1.22056 8.16298 0.857062ZM10.732 1.56155C9.99814 1.4167 9.23783 1.49282 8.54728 1.78027C7.85674 2.06772 7.26699 2.55359 6.8527 3.17637C6.43842 3.79915 6.21821 4.53084 6.21996 5.27882C6.2223 6.27981 6.62158 7.239 7.33021 7.94598C8.03885 8.65296 8.99897 9.05 9.99996 9.04999C10.7479 9.04999 11.4791 8.82807 12.1009 8.41233C12.7227 7.99659 13.2072 7.40571 13.4931 6.71449C13.7789 6.02327 13.8532 5.26279 13.7067 4.5293C13.5601 3.79581 13.1992 3.12229 12.6697 2.594C12.1402 2.06572 11.4658 1.7064 10.732 1.56155Z" fill="black"/>
</svg>
