<svg width="697" height="191" viewBox="0 0 697 191" fill="none" xmlns="http://www.w3.org/2000/svg">
<path d="M96 0C61.6 1.6 30.5 70 0 99C22.5 121.5 58.3 182.2 85.5 191H274C299.2 188.6 335 122.5 362.5 96.5C345 79.5 309.5 8 269.5 0H96Z" fill="#810001"/>
<path d="M430 0C395.6 1.6 364.5 70 334 99C356.5 121.5 392.3 182.2 419.5 191H608C633.2 188.6 669 122.5 696.5 96.5C679 79.5 643.5 8 603.5 0H430Z" fill="#810001"/>
<path d="M249 0C214.6 1.6 183.5 70 153 99C175.5 121.5 211.3 182.2 238.5 191H427C452.2 188.6 488 122.5 515.5 96.5C498 79.5 462.5 8 422.5 0H249Z" fill="#810001"/>
</svg>
